<?xml version="1.0" encoding="UTF-8"?>
<svg xmlns="http://www.w3.org/2000/svg" viewBox="0 0 195 195" width="800" height="800">
<rect width="195" height="195" fill="#E8E3CF"/><path fill-rule="evenodd" clip-rule="evenodd" fill="#353F40" d="M53.4556 26.4085C54.9231 23.4572 59.1301 23.4482 60.6109 26.3929L92.6881 90.1839C94.0257 92.844 92.0923 95.9818 89.1148 95.9818H25.3228C22.3534 95.9815 20.4198 92.8595 21.7418 90.2005L53.4556 26.4085ZM48.6822 63.2347C45.7129 63.2347 43.3062 65.6414 43.3062 68.6107C43.3062 71.5799 45.7129 73.9866 48.6822 73.9866H66.2779C69.2472 73.9866 71.6539 71.5799 71.6539 68.6107C71.6539 65.6414 69.2472 63.2347 66.2779 63.2347H48.6822Z"/>
<path fill="#E0966F" d="M168.686 19.2454C170.704 19.2454 172.34 20.8814 172.34 22.8995V57.6134C172.34 78.8034 155.162 95.9813 133.972 95.9813C112.782 95.9813 95.6039 78.8034 95.6039 57.6133V22.8994C95.6039 20.8813 97.2399 19.2454 99.258 19.2454L126.792 19.2454C126.792 19.2454 126.792 46.4151 126.792 64.5283C126.792 68.3321 129.97 71.3208 133.774 71.3208C137.577 71.3208 140.755 68.3321 140.755 64.5283C140.755 51.3208 140.755 19.2454 140.755 19.2454H168.686Z"/>
<path fill="#E0966F" d="M18.8672 105.164C18.8672 103.146 20.5032 101.51 22.5213 101.51H57.2352C78.4252 101.51 95.6031 118.687 95.6031 139.878C95.6031 161.068 78.4252 178.245 57.2352 178.245H22.5213C20.5032 178.245 18.8672 176.609 18.8672 174.591L18.8672 147.057C18.8672 147.057 46.0369 147.057 64.1501 147.057C67.954 147.057 70.9426 143.88 70.9426 140.076C70.9426 136.272 67.954 133.095 64.1501 133.095C50.9426 133.095 18.8672 133.095 18.8672 133.095L18.8672 105.164Z"/>
<path fill-rule="evenodd" clip-rule="evenodd" fill="#353F40" d="M131.169 108.521C132.637 105.569 136.845 105.56 138.326 108.505L170.402 172.296C171.74 174.956 169.806 178.093 166.829 178.093H103.037C100.067 178.093 98.1337 174.972 99.4556 172.313L131.169 108.521ZM126.395 145.346C123.426 145.346 121.019 147.754 121.019 150.723C121.019 153.692 123.426 156.099 126.395 156.099H143.991C146.96 156.099 149.368 153.692 149.368 150.723C149.368 147.754 146.96 145.346 143.991 145.346H126.395Z"/>
</svg>